{"title":"Brothers 2009 Telesync XviD(A ResourceRG-kvcd)","uid":5208910,"size":886316980,"categoryP":"video","categoryS":"movies","magnet":"?xt=urn:btih:060fa7724b02c95abc71d3a72146b9059fd37ac9&amp;dn=Brothers+2009+Telesync+XviD%28A+ResourceRG-kvcd%29&amp;tr=udp%3A%2F%2Ftracker.openbittorrent.com%3A80&amp;tr=udp%3A%2F%2Fopen.demonii.com%3A1337&amp;tr=udp%3A%2F%2Ftracker.coppersurfer.tk%3A6969&amp;tr=udp%3A%2F%2Fexodus.desync.com%3A6969","seeders":0,"leechers":0,"uploader":"elvishsync","files":-1,"time":1260496202,"description":"Release Title:\nBrothers 2009\nRelease Date:  \n12/04/2009\nplot:\nA young man comforts his older brother's wife and children after he goes missing in Afghanistan. Based on Susanne Bier's film, &quot;Brothers&quot;.\n\n\nGenre:  \nDrama | Thriller | War \nGeneralinfo:\nFormat                           : AVI\nFormat/Info                      : Audio Video Interleave\nFile size                        : 845 MiB\nDuration                         : 1h 50mn\nOverall bit rate                 : 1 100 Kbps\nWriting application              : Lavf52.31.0\n\nVideo\nFormat                           : xvid\nCodec ID                         : xvid\nDuration                         : 1h 50mn\nBit rate                         : 958 Kbps\nWidth                            : 640 pixels\nHeight                           : 480 pixels\nDisplay aspect ratio             : 4:3\nFrame rate                       : 29.970 fps\nResolution                       : 24 bits\nBits/(Pixel*Frame)               : 0.104\nStream size                      : 620 MiB (87%)\n\nAudio\nID                               : 1\nFormat                           : MPEG Audio\nFormat version                   : Version 1\nFormat profile                   : Layer 3\nCodec ID                         : 55\nCodec ID/Hint                    : MP3\nDuration                         : 1h 50mn\nBit rate mode                    : Constant\nBit rate                         : 128 Kbps\nChannel(s)                       : 2 channels\nSampling rate                    : 44.1 KHz\nResolution                       : 16 bits\nStream size                      : 82.8 MiB (12%)\nAlignment                        : Aligned on interleaves\nInterleave, duration             : 26 ms (0.78 video frame)\nInterleave, preload duration     : 182 ms\nWriting library                  : LAME3.98.2\n\nGREETZ:\nMR REP ,BLaZe,Titan,kloWn,iNNERCORE,ResourceRG,Lynks,Tex,Kitty,\nTQW,SEAN,NNC,Stuffie and  PrizM for cams,Darkside,Spin,paulx1 Stash\n","torrent":{"xt":"urn:btih:060fa7724b02c95abc71d3a72146b9059fd37ac9","amp;dn":"Brothers+2009+Telesync+XviD%28A+ResourceRG-kvcd%29","amp;tr":["udp%3A%2F%2Ftracker.openbittorrent.com%3A80","udp%3A%2F%2Fopen.demonii.com%3A1337","udp%3A%2F%2Ftracker.coppersurfer.tk%3A6969","udp%3A%2F%2Fexodus.desync.com%3A6969"],"infoHash":"060fa7724b02c95abc71d3a72146b9059fd37ac9","infoHashBuffer":{"type":"Buffer","data":[6,15,167,114,75,2,201,90,188,113,211,167,33,70,185,5,159,211,122,201]},"announce":[],"urlList":[]}}